<?xml version="1.0" encoding="UTF-8"?>
<svg width="65px" height="70px" viewBox="0 0 65 70" version="1.1" xmlns="http://www.w3.org/2000/svg" xmlns:xlink="http://www.w3.org/1999/xlink">
    <!-- Generator: Sketch 49.1 (51147) - http://www.bohemiancoding.com/sketch -->
    <title>Group 2</title>
    <desc>Created with Sketch.</desc>
    <defs>
        <rect id="path-1" x="0" y="0" width="64.4736842" height="70" rx="3"></rect>
    </defs>
    <g id="Page-1" stroke="none" stroke-width="1" fill="none" fill-rule="evenodd">
        <g id="日志管理_设备比对日志管理" transform="translate(-837.000000, -294.000000)">
            <g id="底库照片" transform="translate(837.000000, 234.000000)">
                <g id="Group-4-Copy-8" transform="translate(0.000000, 60.000000)">
                    <g id="Group-2">
                        <mask id="mask-2" fill="white">
                            <use xlink:href="#path-1"></use>
                        </mask>
                        <use id="Rectangle" fill="#E7E4E4" xlink:href="#path-1"></use>
                        <g id="图片加载失败-03" mask="url(#mask-2)" fill="#FFFFFF" fill-rule="nonzero">
                            <g transform="translate(12.000000, 17.000000)" id="Shape">
                                <path d="M22.4571429,25.1030769 C22.5714286,24.9892308 22.6542857,24.8469231 22.7142857,24.7017692 C23,24.1638462 22.9114286,23.4779231 22.4571429,23.0225385 L12.1142857,12.7223077 L22.3428571,2.53307692 C22.9428571,1.93538462 22.9428571,1.02746154 22.3428571,0.429769231 C22.0571429,0.142307692 21.6857143,0 21.3142857,0 L5.71428571,0 C2.57142857,0 0,2.56153846 0,5.69230769 L0,31.3076923 C0,34.4384615 2.57142857,37 5.71428571,37 L10.0285714,37 C10.4314286,37 10.8028571,36.8576923 11.0857143,36.5730769 L13.4857143,34.1538462 L22.3457143,25.2738462 C22.4,25.2169231 22.4,25.16 22.4571429,25.1030769 Z M34.2857143,0 L29.8857143,0 C29.4857143,0 29.1114286,0.142307692 28.8285714,0.426923077 L26.4,2.84615385 L17.5428571,11.6407692 C16.8057143,12.4405385 16.9428571,13.1321538 17.6571429,13.8892308 L27.9142857,24.1069231 L17.5428571,34.4669231 C16.9714286,35.0361538 16.9714286,35.9725385 17.5428571,36.5702308 C17.8285714,36.8576923 18.2285714,37 18.6,37 L34.2857143,37 C37.4285714,37 40,34.4384615 40,31.3076923 L40,5.69230769 C40,2.56153846 37.4285714,0 34.2857143,0 Z"></path>
                            </g>
                        </g>
                    </g>
                </g>
            </g>
        </g>
    </g>
</svg>