<?xml version="1.0" encoding="UTF-8"?>
<svg width="73px" height="73px" viewBox="0 0 73 73" version="1.1" xmlns="http://www.w3.org/2000/svg" xmlns:xlink="http://www.w3.org/1999/xlink">
    <!-- Generator: Sketch 49.1 (51147) - http://www.bohemiancoding.com/sketch -->
    <title>人脸识别</title>
    <desc>Created with Sketch.</desc>
    <defs></defs>
    <g id="Page-1" stroke="none" stroke-width="1" fill="none" fill-rule="evenodd">
        <g id="告警过滤器管理_全国" transform="translate(-140.000000, -175.000000)" fill-rule="nonzero">
            <g id="人脸识别服务概览" transform="translate(20.000000, 70.000000)">
                <g id="1" transform="translate(120.000000, 95.000000)">
                    <g id="人脸识别" transform="translate(0.000000, 10.000000)">
                        <path d="M17.3154404,32.1952703 C17.3154404,31.8263514 17.5939896,31.5277027 17.9508808,31.4925676 C23.7917098,31.0006757 26.3421762,25.0364865 26.3595855,24.975 C26.4466321,24.7554054 26.6468394,24.5972973 26.8731606,24.5533784 C27.0994819,24.5094595 27.3432124,24.5885135 27.4998964,24.7554054 C38.1979275,36.0601351 53.6312953,31.5540541 53.7879793,31.5101351 C53.9968912,31.4486486 54.2232124,31.4837838 54.4060104,31.6155405 C54.5888083,31.7472973 54.6845596,31.9581081 54.6845596,32.1777027 L54.6845596,36.8858108 C55.5724352,37.0263514 56.3732642,37.4391892 57,38.0277027 L57,27.3993243 C57,18.3608108 49.7054922,11 40.7483938,11 L31.2516062,11 C22.2945078,11 15,18.3608108 15,27.3993243 L15,38.0452703 C15.6267358,37.447973 16.4275648,37.0439189 17.3154404,36.9033784 L17.3154404,32.1952703 Z M18.4209326,49.5432432 C17.7941969,47.9621622 17.5243523,46.5743243 17.4111917,45.652027 C16.4884974,45.5202703 15.6528497,45.1162162 15,44.4925676 L15,59.3986486 C15,61.3837838 16.601658,63 18.5689119,63 L32.6704663,63 C21.7112953,57.7912162 19.3523316,51.8885135 18.4209326,49.5432432 Z M39.6516062,63 L53.4310881,63 C55.398342,63 57,61.3837838 57,59.3986486 L57,44.4925676 C56.3732642,45.0898649 55.5724352,45.4939189 54.6845596,45.6432432 C54.6236269,54.9364865 44.9875648,60.5844595 39.6516062,63 Z" id="Shape" fill="#A0D3F8"></path>
                        <path d="M16.8461538,70.1923077 L2.80769231,70.1923077 L2.80769231,56.1538462 C2.80769231,55.3817308 2.17596154,54.75 1.40384615,54.75 C0.631730769,54.75 0,55.3817308 0,56.1538462 L0,71.5961538 C0,72.3682692 0.631730769,73 1.40384615,73 L16.8461538,73 C17.6182692,73 18.25,72.3682692 18.25,71.5961538 C18.25,70.8240385 17.6182692,70.1923077 16.8461538,70.1923077 Z M71.5961538,54.75 C70.8240385,54.75 70.1923077,55.3817308 70.1923077,56.1538462 L70.1923077,70.1923077 L56.1538462,70.1923077 C55.3817308,70.1923077 54.75,70.8240385 54.75,71.5961538 C54.75,72.3682692 55.3817308,73 56.1538462,73 L71.5961538,73 C72.3682692,73 73,72.3682692 73,71.5961538 L73,56.1538462 C73,55.3817308 72.3682692,54.75 71.5961538,54.75 Z M71.5961538,0 L56.1538462,0 C55.3817308,0 54.75,0.631730769 54.75,1.40384615 C54.75,2.17596154 55.3817308,2.80769231 56.1538462,2.80769231 L70.1923077,2.80769231 L70.1923077,16.8461538 C70.1923077,17.6182692 70.8240385,18.25 71.5961538,18.25 C72.3682692,18.25 73,17.6182692 73,16.8461538 L73,1.40384615 C73,0.631730769 72.3682692,0 71.5961538,0 Z M1.40384615,18.25 C2.17596154,18.25 2.80769231,17.6182692 2.80769231,16.8461538 L2.80769231,2.80769231 L16.8461538,2.80769231 C17.6182692,2.80769231 18.25,2.17596154 18.25,1.40384615 C18.25,0.631730769 17.6182692,0 16.8461538,0 L1.40384615,0 C0.631730769,0 0,0.631730769 0,1.40384615 L0,16.8461538 C0,17.6182692 0.631730769,18.25 1.40384615,18.25 Z M59.075601,58.8737981 L59.075601,26.909976 C59.075601,17.100601 51.1,9.125 41.290625,9.125 L31.709375,9.125 C21.9,9.125 13.924399,17.100601 13.924399,26.909976 L13.924399,58.8737981 C13.924399,61.6376202 16.1705529,63.875 18.925601,63.875 L54.065625,63.875 C56.8294471,63.875 59.075601,61.6288462 59.075601,58.8737981 Z M15.3282452,26.909976 C15.3282452,17.8814904 22.6808894,10.5288462 31.709375,10.5288462 L41.290625,10.5288462 C50.3191106,10.5288462 57.6717548,17.8814904 57.6717548,26.909976 L57.6717548,37.5441106 C57.040024,36.947476 56.2328125,36.5438702 55.3378606,36.4034856 L55.3378606,31.700601 C55.3378606,31.48125 55.2325721,31.2706731 55.0570913,31.1390625 C54.8816106,31.0074519 54.6447115,30.9635817 54.4341346,31.033774 C54.2762019,31.0776442 38.7198317,35.578726 27.9365385,24.2865385 C27.7698317,24.1110577 27.5329327,24.0320913 27.3048077,24.0847356 C27.0766827,24.1286058 26.8748798,24.2865385 26.7871394,24.5058894 C26.7608173,24.5673077 24.1987981,30.5248798 18.3114183,31.016226 C17.9516827,31.0425481 17.6709135,31.3496394 17.6709135,31.718149 L17.6709135,36.4210337 C16.7759615,36.5614183 15.96875,36.9737981 15.3370192,37.5616587 L15.3370192,26.909976 L15.3282452,26.909976 Z M57.6717548,40.7641827 C57.6717548,42.194351 56.6715144,43.3876202 55.3378606,43.7034856 L55.3378606,37.8161058 C56.6715144,38.1407452 57.6717548,39.3427885 57.6717548,40.7641827 Z M17.6621394,37.8248798 L17.6621394,43.7122596 C16.3284856,43.3963942 15.3282452,42.203125 15.3282452,40.7729567 C15.3282452,39.3427885 16.3284856,38.1407452 17.6621394,37.8248798 Z M18.934375,62.4711538 C16.9514423,62.4711538 15.3370192,60.8567308 15.3370192,58.8737981 L15.3370192,43.9842548 C15.9950721,44.5984375 16.8286058,45.0108173 17.7674279,45.1424279 C17.8902644,46.0637019 18.1534856,47.45 18.7852163,49.0293269 C19.7240385,51.3632212 22.1018029,57.259375 33.1570913,62.4711538 L18.934375,62.4711538 Z M20.083774,48.5116587 C19.0835337,46.0198317 19.0659856,43.9930288 19.0659856,43.9667067 L19.0659856,32.3235577 C23.953125,31.6216346 26.6292067,27.7522837 27.6206731,25.9536058 C37.3861779,35.4471154 50.415625,33.3764423 53.9340144,32.5955529 L53.9340144,45.0371394 C53.9340144,55.9081731 38.6145433,61.6902644 36.5175481,62.4272837 C23.5495192,57.1716346 21.0313702,50.880649 20.083774,48.5116587 Z M54.065625,62.4711538 L40.1763221,62.4711538 C45.5548077,60.0582933 55.2676683,54.4165865 55.3378606,45.1336538 C56.2328125,44.9932692 57.040024,44.5808894 57.6717548,43.9842548 L57.6717548,58.8737981 C57.6717548,60.8567308 56.0573317,62.4711538 54.065625,62.4711538 Z" id="Shape" fill="#108EE9"></path>
                        <path d="M30.1939341,34.5334448 C27.345198,33.3558163 24.5482571,34.4888377 24.4360341,34.5334448 C24.0821002,34.6761876 23.9094496,35.0954947 24.0475701,35.4612733 C24.1511605,35.7378375 24.4187691,35.9073447 24.6863776,35.9073447 C24.7727029,35.9073447 24.8590283,35.8895018 24.9453536,35.8538161 C24.9712512,35.8448947 27.3365655,34.8813805 29.6846146,35.8538161 C30.0385485,35.9965589 30.4442776,35.8270518 30.5823981,35.4523518 C30.7205187,35.0954947 30.547868,34.6851091 30.1939341,34.5334448 Z M48.5639659,34.5334448 C45.7152297,33.3558163 42.9182888,34.4888377 42.8060659,34.5334448 C42.452132,34.6761876 42.2794813,35.0954947 42.4176019,35.4612733 C42.5557224,35.8270518 42.9614515,36.0054804 43.3153854,35.8627375 C43.341283,35.8538161 45.7238623,34.8992233 48.0546464,35.8627375 C48.1409717,35.8984232 48.2272971,35.9162661 48.3136224,35.9162661 C48.5898635,35.9162661 48.8488395,35.746759 48.9524299,35.4701947 C49.0905504,35.0954947 48.9178998,34.6851091 48.5639659,34.5334448 Z M27.8372524,37.3347731 C26.585535,37.3347731 25.5755286,38.3875016 25.5755286,39.6721871 C25.5755286,40.9568727 26.5941676,42.0096012 27.8372524,42.0096012 C29.0803373,42.0096012 30.0989762,40.9568727 30.0989762,39.6721871 C30.0989762,38.3875016 29.0889698,37.3347731 27.8372524,37.3347731 Z M27.8372524,40.5910942 C27.3538305,40.5910942 26.956734,40.1807085 26.956734,39.6811086 C26.956734,39.1815086 27.3538305,38.7711229 27.8372524,38.7711229 C28.3206743,38.7711229 28.7177709,39.1815086 28.7177709,39.6811086 C28.7264034,40.1807085 28.3293068,40.5910942 27.8372524,40.5910942 Z M45.4217236,37.6113373 C44.1700062,37.6113373 43.1599998,38.6640658 43.1599998,39.9487514 C43.1599998,41.233437 44.1786387,42.2861655 45.4217236,42.2861655 C46.6648085,42.2861655 47.6834474,41.233437 47.6834474,39.9487514 C47.6834474,38.6640658 46.673441,37.6113373 45.4217236,37.6113373 Z M45.4217236,40.8676584 C44.9383017,40.8676584 44.5412052,40.4572728 44.5412052,39.9576728 C44.5412052,39.4580729 44.9383017,39.0476872 45.4217236,39.0476872 C45.9051455,39.0476872 46.302242,39.4580729 46.302242,39.9576728 C46.3108746,40.4572728 45.913778,40.8676584 45.4217236,40.8676584 Z M35.5892677,47.5498078 L37.8596241,47.5498078 C38.2394555,47.5498078 38.5502268,47.2286364 38.5502268,46.8360936 C38.5502268,46.4435508 38.2394555,46.1223794 37.8596241,46.1223794 L35.5892677,46.1223794 C35.2094362,46.1223794 34.898665,46.4435508 34.898665,46.8360936 C34.898665,47.2286364 35.2008037,47.5498078 35.5892677,47.5498078 Z M41.6147762,51.0291646 C36.8409851,54.4817571 32.1103566,51.1719074 31.9118083,51.0291646 C31.6010371,50.8061289 31.1694104,50.8864217 30.9535971,51.2075931 C30.7377837,51.5287645 30.8154765,51.9748359 31.1262478,52.1978716 C31.1607779,52.2246359 33.6728452,54 36.9963707,54 C38.6710822,54 40.544342,53.5450072 42.4176019,52.1978716 C42.7283731,51.9748359 42.8060659,51.5287645 42.5902525,51.2075931 C42.3571741,50.8775003 41.9255474,50.8061289 41.6147762,51.0291646 Z" id="Shape" fill="#108EE9"></path>
                    </g>
                </g>
            </g>
        </g>
    </g>
</svg>