<?xml version="1.0" encoding="UTF-8"?>
<svg width="22px" height="22px" viewBox="0 0 22 22" version="1.1" xmlns="http://www.w3.org/2000/svg" xmlns:xlink="http://www.w3.org/1999/xlink">
    <!-- Generator: Sketch 49.1 (51147) - http://www.bohemiancoding.com/sketch -->
    <title>登录/logo</title>
    <desc>Created with Sketch.</desc>
    <defs></defs>
    <g id="Page-1" stroke="none" stroke-width="1" fill="none" fill-rule="evenodd">
        <g id="登录界面" transform="translate(-20.000000, -20.000000)" fill="#FFFFFF" fill-rule="nonzero">
            <g id="Group-2" transform="translate(20.000000, 20.000000)">
                <path d="M15.6046418,7.64896339 C16.4037283,8.30438247 19.2886429,10.9558272 21.2179961,13.5400363 C21.2544563,13.590848 21.3177553,13.70017 21.2458476,13.8946914 C21.1562162,14.130786 20.9886005,14.4762026 20.9886005,14.4762026 C20.9825238,14.4664509 20.2958564,13.568265 19.3980236,12.6090025 C18.1776191,11.3032968 17.1471116,10.3353091 16.5115897,9.78613255 C16.1125529,9.44122917 15.7550402,9.27134373 15.4117065,9.25697275 C15.0253295,9.24465478 14.683515,9.41094748 14.4131017,9.66757202 C14.3325854,9.74455938 14.1715528,9.89340161 13.9543106,10.0945953 C12.9324118,11.050265 10.7873357,13.0473172 9.64086445,14.0271097 C9.47324873,14.1759519 9.3375357,14.2986184 9.2438532,14.3812516 C8.77392152,14.7969833 8.24018446,15.0243526 7.69277482,15.0330779 C7.14536517,15.0418031 6.57820625,14.827265 6.03130299,14.3509699 C3.05473141,11.754956 0.893450786,9.13533272 0.421493536,8.44860546 C0.350598778,8.33908934 0.341007948,8.2000833 0.396173941,8.08163237 C0.487324483,7.84913053 0.649369891,7.51705838 0.649369891,7.51705838 C0.649369891,7.51705838 1.36540804,8.39830705 2.24095963,9.39093076 C3.65328664,11.0040726 4.86609523,11.9664146 5.12739345,12.2138007 C5.51528965,12.5746148 5.88343656,12.7280763 6.22423831,12.7424472 C6.6126409,12.7547652 6.95445543,12.5884725 7.22588148,12.331848 C7.30538501,12.2548606 10.8501283,8.95364255 11.9965996,7.97436331 C12.1642153,7.82500783 12.2999283,7.7023413 12.392598,7.6197082 C12.8610105,7.20500294 13.3937348,6.9745541 13.9421572,6.96685537 C14.4905797,6.95915663 15.0476108,7.18703922 15.6046418,7.64896339 Z M14.5249847,3.94286954 C15.7444854,4.61044107 18.9132468,7.29259283 21.8869289,11.6374826 C22.0493247,11.8747955 21.9890646,12.1554439 21.9890646,12.1724685 C21.9451462,12.4851024 21.8731405,12.8333333 21.8731405,12.8333333 C21.3910598,12.1275854 18.5787522,8.34657168 15.403352,5.94248874 C14.0970359,4.9519653 12.6671355,5.04431097 11.4415066,6.09725803 C11.0064084,6.4511638 7.75440639,9.34792897 6.16006747,10.9662998 C5.92260188,11.2067081 5.64785673,11.247464 5.42111539,11.0519388 C4.90797945,10.6232005 4.42236452,10.1619162 3.96721311,9.67088089 C4.7781709,8.74226516 8.91568977,4.85910373 9.9196841,4.11930653 C11.5242366,2.93686917 13.1308318,3.17624567 14.5249847,3.94286954 Z M2.34583344,7.87022799 C1.90036422,7.4355348 1.47846847,6.97715704 1.08196721,6.49707318 C1.74038854,5.76998974 4.33976531,3.36089292 6.36144674,1.72191722 C9.03801774,-0.448193949 11.8750316,-0.225410721 13.3336493,0.541672439 C14.4325318,1.11787088 16.1474545,2.08748425 18.8613612,5.26974013 C20.2291622,6.87479202 21.1751698,8.49857796 21.3895982,8.93097995 C21.4462183,9.05102209 21.4887174,9.17727217 21.5162371,9.30717981 C21.5868966,9.62247436 21.6281107,9.94369332 21.6393443,10.2666667 C20.5722476,8.72642444 19.5949586,7.36086452 18.1000143,5.72492677 C16.9289829,4.51582143 16.1277775,3.8008898 15.224151,3.07735063 C12.803885,1.13356697 10.3195428,1.29154053 8.20048563,2.93709847 C6.94519653,3.91329406 4.77972194,5.88897624 2.78427646,7.82415237 C2.65259219,7.96389821 2.49719467,7.99731569 2.34583344,7.87022799 Z M7.47386332,18.0567755 C6.25644911,17.3881989 3.08780178,14.7071859 0.10963076,10.3624696 C-0.049695262,10.1261979 0.0115839772,9.84556084 0.0115839772,9.82853689 C0.0549901049,9.51488366 0.127503871,9.16666667 0.127503871,9.16666667 C0.612120521,9.87341819 3.41717769,13.6532492 6.59450624,16.0562044 C7.90332866,17.0466883 9.33317757,16.955378 10.5587624,15.9014413 C10.993845,15.5475496 14.2457299,12.6519319 15.8400114,11.0325939 C16.0749152,10.7927111 16.3496505,10.7519568 16.5753623,10.9474742 C17.0903708,11.3753136 17.5772121,11.8366268 18.0327869,12.328477 C17.220837,13.2565397 13.0829563,17.1395461 12.0784875,17.8803455 C10.4734821,19.0627357 8.86694469,18.8244005 7.47386332,18.0567755 Z M19.2910503,14.130356 C19.737134,14.5656581 20.1598394,15.0244481 20.557377,15.5047839 C19.898988,16.2312311 17.2931802,18.6404034 15.2751296,20.2780735 C12.6002035,22.4488091 9.76181531,22.2255595 8.30680082,21.4570948 C7.20696324,20.8799869 5.49414279,19.9105469 2.7793602,16.7288601 C1.41263543,15.1251077 0.465665178,13.5005996 0.252256326,13.0692874 C0.193888715,12.9504506 0.150502869,12.8247803 0.123101087,12.6951798 C0.0457010578,12.3803136 0.00439963503,12.0576063 0,11.7333333 C1.06805329,13.2722877 2.04327624,14.6386159 3.53865174,16.2752736 C4.70710305,17.4841627 5.50726011,18.1989665 6.4118513,18.9223763 C8.83199849,20.8637874 11.3162188,20.7068546 13.4351719,19.0626034 C14.6914084,18.0875948 16.8557677,16.1127721 18.8516198,14.1769296 C18.9832976,14.0387274 19.1396965,14.0048097 19.2910503,14.130356 Z" id="登录/logo"></path>
            </g>
        </g>
    </g>
</svg>