<?xml version="1.0" encoding="UTF-8"?>
<svg width="76px" height="70px" viewBox="0 0 76 70" version="1.1" xmlns="http://www.w3.org/2000/svg" xmlns:xlink="http://www.w3.org/1999/xlink">
    <!-- Generator: Sketch 49.1 (51147) - http://www.bohemiancoding.com/sketch -->
    <title>访客人脸库icon</title>
    <desc>Created with Sketch.</desc>
    <defs></defs>
    <g id="Page-1" stroke="none" stroke-width="1" fill="none" fill-rule="evenodd">
        <g id="告警过滤器管理_首页" transform="translate(-157.000000, -425.000000)">
            <g id="人脸库概览" transform="translate(20.000000, 350.000000)">
                <g id="访客人脸库icon" transform="translate(137.000000, 75.000000)">
                    <g>
                        <path d="M31.4977019,2.84779659 C39.4215364,2.84779659 46.890348,3.72544818 52.5344714,5.3161917 C55.0991464,6.04299693 57.1858175,6.88865081 58.5830598,7.78458682 C59.9159554,8.6393829 60.1089954,9.18791515 60.1273802,9.25191058 C60.1135916,9.31590601 59.9113592,9.86443825 58.5830598,10.7192343 C57.1858175,11.6105992 55.0991464,12.4653953 52.5344714,13.1876295 C46.890348,14.778373 39.4215364,15.6605957 31.4977019,15.6605957 C23.5738674,15.6605957 16.1050558,14.7829441 10.4609324,13.1922006 C7.89625739,12.4653953 5.80499015,11.6197414 4.41234406,10.7192343 C3.07944846,9.86443825 2.8864084,9.31590601 2.86342745,9.25191058 C2.87721602,9.18791515 3.07944846,8.6393829 4.40774787,7.78458682 C5.80499015,6.89779301 7.89625739,6.04299693 10.4609324,5.3161917 C16.1050558,3.72087708 23.5738674,2.84779659 31.4977019,2.84779659 Z M31.4977019,1.01498855e-15 C14.1011162,1.01498855e-15 5.68434189e-14,4.14141847 5.68434189e-14,9.25648168 C5.68434189e-14,14.3715449 14.1011162,18.5083923 31.4977019,18.5083923 C48.8942876,18.5083923 62.9954038,14.3669738 62.9954038,9.25191058 C62.9954038,4.13684737 48.8942876,0 31.4977019,1.01498855e-15 Z M2.86342745,9.09649311 L1.42108547e-14,9.09649311 L1.42108547e-14,54.729805 L2.86342745,54.729805 L2.86342745,9.09649311 Z M62.9954038,9.0782087 L60.1319764,9.0782087 L60.1319764,54.7115206 L62.9954038,54.7115206 L62.9954038,9.0782087 Z M60.1319764,54.7023784 L60.1319764,54.7389472 C60.1181878,54.8029426 59.9159554,55.3514749 58.5876559,56.206271 C57.1904137,57.0976359 55.1037426,57.952432 52.5390676,58.6746661 C46.890348,60.2654096 39.4215364,61.1384901 31.4977019,61.1384901 C23.5738674,61.1384901 16.1050558,60.2608385 10.4609324,58.670095 C7.89625739,57.9432898 5.80958634,57.0976359 4.41234406,56.2016999 C3.07944846,55.3469038 2.8864084,54.7983715 2.86802364,54.7343761 L2.86802364,54.7115206 L0.00459619173,54.7343761 L0.00459619173,54.7435183 C0.00459619173,59.8540104 14.1057124,64 31.5022981,64 C48.8988838,64 63,59.8585815 63,54.7435183 L63,54.7115206 L60.1319764,54.7023784 Z M60.1319764,39.7183058 L60.1319764,39.7548747 C60.1181878,39.8188701 59.9159554,40.3674023 58.5876559,41.2221984 C57.1904137,42.1135633 55.1037426,42.9683594 52.5390676,43.6905935 C46.890348,45.2767659 39.4261326,46.1589886 31.5022981,46.1589886 C23.5784636,46.1589886 16.109652,45.281337 10.4655286,43.6905935 C7.90085358,42.9637883 5.81418253,42.1181344 4.41694025,41.2221984 C3.07944846,40.3674023 2.8864084,39.8188701 2.86342745,39.7548747 L2.86342745,39.7320191 L1.42108547e-14,39.7548747 L1.42108547e-14,39.7640169 C1.42108547e-14,44.874509 14.1011162,49.0204985 31.4977019,49.0204985 C48.8942876,49.0204985 62.9954038,44.8790801 62.9954038,39.7640169 L62.9954038,39.7320191 L60.1319764,39.7183058 Z M60.1319764,23.9480037 L60.1319764,23.9845725 C60.1181878,24.048568 59.9159554,24.5971002 58.5876559,25.4518963 C57.1904137,26.3432612 55.1037426,27.1980573 52.5390676,27.9202914 C46.890348,29.5064638 39.4215364,30.3932576 31.4977019,30.3932576 C23.5738674,30.3932576 16.1050558,29.515606 10.4609324,27.9248625 C7.89625739,27.1934862 5.80499015,26.3478323 4.41234406,25.4518963 C3.07944846,24.5971002 2.8864084,24.048568 2.86342745,23.9845725 L2.86342745,23.961717 L0,23.9845725 L0,23.9937147 C0,29.1042068 14.1011162,33.2501964 31.4977019,33.2501964 C48.8942876,33.2501964 62.9954038,29.1087779 62.9954038,23.9937147 L62.9954038,23.961717 L60.1319764,23.9480037 Z" id="Shape" fill="#25DAC7" fill-rule="nonzero"></path>
                        <circle id="Oval" fill="#E9FCFA" cx="58" cy="52" r="18"></circle>
                        <path d="M57.5,37 C49.5048316,37 43,43.5054382 43,51.5 C43,59.4945618 49.5054382,66 57.5,66 C65.4945618,66 72,59.4945618 72,51.5 C72,43.5054382 65.4951684,37 57.5,37 Z M57.5,63.6995973 C50.7730828,63.6995973 45.3009591,58.2269172 45.3009591,51.5 C45.3009591,44.7730828 50.7730828,39.3004026 57.5,39.3004026 C64.2269172,39.3004026 69.6990409,44.7730828 69.6990409,51.5 C69.6990409,58.2269172 64.2269172,63.6995973 57.5,63.6995973 Z M60.3241791,51.7462665 C61.6859235,50.8345953 62.5836436,49.2823886 62.5836436,47.5203096 C62.5836436,44.7131144 60.3078017,42.4372725 57.5006066,42.4372725 C54.6934114,42.4372725 52.4175695,44.7131144 52.4175695,47.5203096 C52.4175695,49.2829952 53.3152897,50.8345953 54.6776406,51.7462665 C51.8182807,52.8732692 49.7941644,55.6580213 49.7941644,58.9171094 C49.7941644,59.3853796 50.1550721,59.7456808 50.6002928,59.7456808 C51.0449069,59.7456808 51.224451,59.3853796 51.224451,58.940159 C51.224451,55.5458063 54.1347626,52.6373144 57.5012131,52.6373144 C60.8694834,52.6373144 63.7810082,55.5488392 63.7810082,58.9171094 C63.7810082,58.9213554 63.739155,59.7456808 64.4075925,59.7456808 C64.8497804,59.7456808 65.2082619,59.3871993 65.2082619,58.9456181 C65.2070488,55.6580213 63.1823259,52.8732692 60.3241791,51.7462665 Z M57.5,50.6919159 C55.7487911,50.6919159 54.3290002,49.272125 54.3290002,47.5209161 C54.3290002,45.7692066 55.7487911,44.3499163 57.5,44.3499163 C59.2517095,44.3499163 60.6709998,45.7697072 60.6709998,47.5209161 C60.6709998,49.272125 59.2512089,50.6919159 57.5,50.6919159 Z" id="Shape" fill="#25DAC7" fill-rule="nonzero"></path>
                    </g>
                </g>
            </g>
        </g>
    </g>
</svg>