<?xml version="1.0" encoding="UTF-8"?>
<svg width="27px" height="22px" viewBox="0 0 27 22" version="1.1" xmlns="http://www.w3.org/2000/svg" xmlns:xlink="http://www.w3.org/1999/xlink">
    <!-- Generator: Sketch 49.1 (51147) - http://www.bohemiancoding.com/sketch -->
    <title>弹窗/照片上传</title>
    <desc>Created with Sketch.</desc>
    <defs></defs>
    <g id="Page-1" stroke="none" stroke-width="1" fill="none" fill-rule="evenodd">
        <g id="人脸库管理_弹窗" transform="translate(-105.000000, -1014.000000)" fill="#C3DFF7" fill-rule="nonzero">
            <g id="批量导入人脸信息" transform="translate(61.000000, 885.000000)">
                <g id="人脸库描述" transform="translate(20.000000, 112.000000)">
                    <g id="照片">
                        <g id="Group-6" transform="translate(24.000000, 17.000000)">
                            <g id="弹窗/照片上传">
                                <path d="M20,6 C20,7.1045695 20.8954305,8 22,8 C23.1045695,8 24,7.1045695 24,6 C24,4.8954305 23.1045695,4 22,4 C20.8954305,4 20,4.8954305 20,6 Z" id="Shape"></path>
                                <path d="M26.8281818,22 C26.9226818,22 27,21.9205556 27,21.8227778 L27,0.177222225 C27,0.0794444492 26.9226818,0 26.8281818,0 L0.173045447,0 C0.0773181818,0 0,0.0794444492 0,0.177222225 L0,21.8227778 C0,21.9205556 0.0773181818,22 0.173045447,22 L26.8281818,22 Z M1.22727273,1.22222222 L25.7727273,1.22222222 L25.7727273,20.7777778 L1.22727273,20.7777778 L1.22727273,1.22222222 Z" id="Shape"></path>
                                <path d="M17.8169231,9.87625114 C17.7118074,9.70750116 17.5003535,9.66750117 17.3426798,9.78125114 L13.9655298,12.2100009 C13.8873041,12.2662509 13.780966,12.2437509 13.732075,12.1575009 L9.75234263,5.12750168 C9.65700504,4.95750169 9.50422048,4.95625171 9.41499429,5.13125168 L9.02142125,5.90625159 L2.03611089,19.6825 C1.94688471,19.85875 2.02877724,20 2.21823009,20 L23.7987445,20 C23.9820859,20 24.0566448,19.865 23.9527513,19.69875 L17.8169231,9.87625114 Z" id="Shape"></path>
                            </g>
                        </g>
                    </g>
                </g>
            </g>
        </g>
    </g>
</svg>