<?xml version="1.0" encoding="UTF-8"?>
<svg width="27px" height="23px" viewBox="0 0 27 23" version="1.1" xmlns="http://www.w3.org/2000/svg" xmlns:xlink="http://www.w3.org/1999/xlink">
    <!-- Generator: Sketch 49.1 (51147) - http://www.bohemiancoding.com/sketch -->
    <title>弹窗/表格上传</title>
    <desc>Created with Sketch.</desc>
    <defs>
        <path d="M5,0 L413,0 C415.761424,-5.07265313e-16 418,2.23857625 418,5 L418,278 C418,280.761424 415.761424,283 413,283 L5,283 C2.23857625,283 3.38176876e-16,280.761424 0,278 L0,5 C-3.38176876e-16,2.23857625 2.23857625,5.07265313e-16 5,0 Z" id="path-1"></path>
        <filter x="-2.2%" y="-3.2%" width="104.3%" height="106.4%" filterUnits="objectBoundingBox" id="filter-2">
            <feOffset dx="0" dy="0" in="SourceAlpha" result="shadowOffsetOuter1"></feOffset>
            <feGaussianBlur stdDeviation="3" in="shadowOffsetOuter1" result="shadowBlurOuter1"></feGaussianBlur>
            <feColorMatrix values="0 0 0 0 0   0 0 0 0 0   0 0 0 0 0  0 0 0 0.15 0" type="matrix" in="shadowBlurOuter1"></feColorMatrix>
        </filter>
        <rect id="path-3" x="0" y="0" width="76" height="82.5142857" rx="3"></rect>
    </defs>
    <g id="Page-1" stroke="none" stroke-width="1" fill="none" fill-rule="evenodd">
        <g id="人脸库管理_弹窗" transform="translate(-192.000000, -1014.000000)">
            <polygon id="bg" fill="#FFFFFF" points="0 0 2126 6.15813308 2126 1506 0 1506"></polygon>
            <g id="批量导入人脸信息" transform="translate(61.000000, 885.000000)">
                <g id="Rectangle-14">
                    <use fill="black" fill-opacity="1" filter="url(#filter-2)" xlink:href="#path-1"></use>
                    <use fill="#FFFFFF" fill-rule="evenodd" xlink:href="#path-1"></use>
                </g>
                <g id="人脸库描述" transform="translate(20.000000, 112.000000)">
                    <g id="上传文件" transform="translate(86.000000, 0.000000)">
                        <g id="Rectangle-26-Copy-23">
                            <use fill="#FFFFFF" fill-rule="evenodd" xlink:href="#path-3"></use>
                            <rect stroke="#E5E5E5" stroke-width="1" x="0.5" y="0.5" width="75" height="81.5142857" rx="3"></rect>
                        </g>
                        <g id="Group-7" transform="translate(25.000000, 17.000000)" fill="#C3DFF7" fill-rule="nonzero">
                            <g id="弹窗/表格上传">
                                <path d="M25.0714286,0 L1.92857143,0 C0.867857143,0 0,0.8625 0,1.91666667 L0,21.0833333 C0,22.1375 0.867857143,23 1.92857143,23 L25.0714286,23 C26.1321429,23 27,22.1375 27,21.0833333 L27,1.91666667 C27,0.8625 26.1321429,0 25.0714286,0 Z M8.67857143,21.0833333 L1.92857143,21.0833333 L1.92857143,16.2916667 L8.67857143,16.2916667 L8.67857143,21.0833333 Z M8.67857143,14.375 L1.92857143,14.375 L1.92857143,9.58333333 L8.67857143,9.58333333 L8.67857143,14.375 Z M8.67857143,7.66666667 L1.92857143,7.66666667 L1.92857143,2.875 L8.67857143,2.875 L8.67857143,7.66666667 Z M16.3928571,21.0833333 L10.6071429,21.0833333 L10.6071429,16.2916667 L16.3928571,16.2916667 L16.3928571,21.0833333 Z M16.3928571,14.375 L10.6071429,14.375 L10.6071429,9.58333333 L16.3928571,9.58333333 L16.3928571,14.375 Z M16.3928571,7.66666667 L10.6071429,7.66666667 L10.6071429,2.875 L16.3928571,2.875 L16.3928571,7.66666667 Z M25.0714286,21.0833333 L18.3214286,21.0833333 L18.3214286,16.2916667 L25.0714286,16.2916667 L25.0714286,21.0833333 Z M25.0714286,14.375 L18.3214286,14.375 L18.3214286,9.58333333 L25.0714286,9.58333333 L25.0714286,14.375 Z M25.0714286,7.66666667 L18.3214286,7.66666667 L18.3214286,2.875 L25.0714286,2.875 L25.0714286,7.66666667 Z" id="Shape"></path>
                            </g>
                        </g>
                    </g>
                </g>
            </g>
        </g>
    </g>
</svg>