<?xml version="1.0" encoding="UTF-8"?>
<svg width="372px" height="502px" viewBox="0 0 372 502" version="1.1" xmlns="http://www.w3.org/2000/svg" xmlns:xlink="http://www.w3.org/1999/xlink">
    <!-- Generator: Sketch 49.1 (51147) - http://www.bohemiancoding.com/sketch -->
    <title>插画</title>
    <desc>Created with Sketch.</desc>
    <defs>
        <linearGradient x1="69.6460921%" y1="100%" x2="69.6460903%" y2="2.22417092%" id="linearGradient-1">
            <stop stop-color="#1736B0" offset="0%"></stop>
            <stop stop-color="#08205A" offset="100%"></stop>
        </linearGradient>
        <polygon id="path-2" points="0.699351902 0 371.503092 0 371.503092 501.309152 0.699351902 501.309152"></polygon>
        <linearGradient x1="49.9919987%" y1="83.6509735%" x2="49.9919987%" y2="19.2644483%" id="linearGradient-4">
            <stop stop-color="#00E9FF" offset="0%"></stop>
            <stop stop-color="#1A1DE2" offset="100%"></stop>
        </linearGradient>
        <linearGradient x1="50%" y1="-3.03225806%" x2="50%" y2="112.129032%" id="linearGradient-5">
            <stop stop-color="#00B9FF" offset="0%"></stop>
            <stop stop-color="#296AE2" offset="100%"></stop>
        </linearGradient>
        <linearGradient x1="0%" y1="49.9736842%" x2="99.9870147%" y2="49.9736842%" id="linearGradient-6">
            <stop stop-color="#2969E2" offset="0%"></stop>
            <stop stop-color="#29B6E2" offset="100%"></stop>
        </linearGradient>
        <linearGradient x1="0%" y1="50%" x2="100%" y2="50%" id="linearGradient-7">
            <stop stop-color="#00B5FF" offset="0%"></stop>
            <stop stop-color="#296CE2" offset="100%"></stop>
        </linearGradient>
        <linearGradient x1="50%" y1="-3.04545455%" x2="50%" y2="112.090909%" id="linearGradient-8">
            <stop stop-color="#00C2FF" offset="0%"></stop>
            <stop stop-color="#2944E2" offset="100%"></stop>
        </linearGradient>
        <linearGradient x1="21.9210526%" y1="49.84%" x2="88.6052632%" y2="49.84%" id="linearGradient-9">
            <stop stop-color="#00FFFF" offset="0%"></stop>
            <stop stop-color="#29C2E2" offset="100%"></stop>
        </linearGradient>
        <linearGradient x1="49.9999612%" y1="83.6531198%" x2="49.9999612%" y2="-15.3270887%" id="linearGradient-10">
            <stop stop-color="#00EAFF" offset="0%"></stop>
            <stop stop-color="#1F44E2" offset="100%"></stop>
        </linearGradient>
    </defs>
    <g id="Page-1" stroke="none" stroke-width="1" fill="none" fill-rule="evenodd">
        <g id="登录界面" transform="translate(-320.000000, -142.000000)">
            <g id="Group" transform="translate(320.000000, 142.000000)">
                <g id="插画">
                    <mask id="mask-3" fill="white">
                        <use xlink:href="#path-2"></use>
                    </mask>
                    <use id="bg_guadual" fill="url(#linearGradient-1)" xlink:href="#path-2"></use>
                    <g mask="url(#mask-3)">
                        <g transform="translate(-42.000000, -77.000000)">
                            <ellipse id="Oval" stroke="none" fill="#00FFFF" fill-rule="nonzero" opacity="0.05" cx="231.5" cy="431.5" rx="111.5" ry="55.5"></ellipse>
                            <ellipse id="Oval" stroke="none" fill="#00FFFF" fill-rule="nonzero" opacity="0.05" cx="231" cy="441" rx="160" ry="79"></ellipse>
                            <ellipse id="Oval" stroke="none" fill="#00FFFF" fill-rule="nonzero" opacity="0.05" cx="230.5" cy="454" rx="230.5" ry="114"></ellipse>
                            <rect id="Rectangle-path" stroke="none" fill="url(#linearGradient-4)" fill-rule="nonzero" opacity="0.2" x="190" y="454" width="80" height="125"></rect>
                            <ellipse id="Oval" stroke="none" fill="url(#linearGradient-5)" fill-rule="nonzero" cx="230" cy="454" rx="40" ry="20"></ellipse>
                            <path d="M139,393.585737 L192.680006,460.678117 C192.680006,460.678117 203.23161,475.194213 234.284571,473.920871 C234.284571,473.920871 256.937226,473.449735 267.821769,461.989659 L323,393 L139,393.585737 Z" id="Shape" stroke="none" fill="#00F3FF" fill-rule="nonzero" opacity="0.08"></path>
                            <path d="M313.564148,347.697368 C295.925984,334.627895 265.753084,326 231.487209,326 C197.221335,326 167.048435,334.627895 149.410271,347.697368 L133,347.697368 L133,377.052632 L133.140696,377.052632 C135.839501,402.655526 178.841319,423 231.487209,423 C284.1331,423 327.147708,402.578947 329.859304,377.052632 L330,377.052632 L330,347.697368 L313.564148,347.697368 Z" id="Shape" stroke="none" fill="url(#linearGradient-6)" fill-rule="nonzero"></path>
                            <ellipse id="Oval" stroke="none" fill="url(#linearGradient-7)" fill-rule="nonzero" cx="231.5" cy="348.5" rx="98.5" ry="48.5"></ellipse>
                            <path d="M231.5,419.202532 C178.399545,419.202532 135.149091,398.683544 133.102338,373 C133.102338,373.632911 133,374.265823 133,374.898734 C133,401.481013 177.09474,423 231.5,423 C285.90526,423 330,401.481013 330,374.898734 C330,374.265823 330,373.632911 329.897662,373 C327.850909,398.658228 284.600455,419.202532 231.5,419.202532 Z" id="Shape" stroke="none" fill="#1949CE" fill-rule="nonzero"></path>
                            <path d="M231.5,397.202532 C178.399545,397.202532 135.149091,376.683544 133.102338,351 C133.102338,351.632911 133,352.265823 133,352.898734 C133,379.481013 177.09474,401 231.5,401 C285.90526,401 330,379.481013 330,352.898734 C330,352.265823 330,351.632911 329.897662,351 C327.850909,376.658228 284.600455,397.202532 231.5,397.202532 Z" id="Shape" stroke="none" fill="#1949CE" fill-rule="nonzero"></path>
                            <ellipse id="Oval" stroke="none" fill="url(#linearGradient-8)" fill-rule="nonzero" cx="230.5" cy="348" rx="24.5" ry="14"></ellipse>
                            <path d="M230.5,337.84 C242.891842,337.84 253.117368,343.1392 254.742105,350 C254.902968,349.372128 254.989518,348.727776 255,348.08 C255,340.2976 244.026579,334 230.5,334 C216.973421,334 206,340.2976 206,348.08 C206.010482,348.727776 206.097032,349.372128 206.257895,350 C207.882632,343.1008 218.108158,337.84 230.5,337.84 Z" id="Shape" stroke="none" fill="url(#linearGradient-9)" fill-rule="nonzero"></path>
                            <path d="M230.486994,311 C223.034682,311 217,314.578231 217,319 C217,323.421769 223.047688,327 230.5,327 C237.952312,327 244,323.421769 244,319.013605 C244,314.605442 237.926301,311 230.486994,311 Z M230.486994,326.387755 C223.593931,326.387755 218.001445,323.081633 218.001445,318.986395 C218.001445,314.891156 223.593931,311.585034 230.486994,311.585034 C237.380058,311.585034 242.972543,314.891156 242.972543,318.986395 C242.972543,323.081633 237.380058,326.387755 230.486994,326.387755 Z" id="Shape" stroke="none" fill="#00FFFF" fill-rule="nonzero"></path>
                            <path d="M230.486994,255 C223.034682,255 217,258.578231 217,263 C217,267.421769 223.047688,271 230.5,271 C237.952312,271 244,267.421769 244,263.013605 C244,258.605442 237.926301,255 230.486994,255 Z M230.486994,270.387755 C223.593931,270.387755 218.001445,267.081633 218.001445,262.986395 C218.001445,258.891156 223.593931,255.585034 230.486994,255.585034 C237.380058,255.585034 242.972543,258.891156 242.972543,262.986395 C242.972543,267.081633 237.380058,270.387755 230.486994,270.387755 Z" id="Shape" stroke="none" fill="#00FFFF" fill-rule="nonzero"></path>
                            <path d="M230.486994,194 C223.034682,194 217,197.578231 217,202 C217,206.421769 223.047688,210 230.5,210 C237.952312,210 244,206.421769 244,202.013605 C244,197.605442 237.926301,194 230.486994,194 Z M230.486994,209.387755 C223.593931,209.387755 218.001445,206.081633 218.001445,201.986395 C218.001445,197.891156 223.593931,194.585034 230.486994,194.585034 C237.380058,194.585034 242.972543,197.891156 242.972543,201.986395 C242.972543,206.081633 237.380058,209.387755 230.486994,209.387755 Z" id="Shape" stroke="none" fill="#00FFFF" fill-rule="nonzero"></path>
                            <path d="M364,314 C364,314 361.769912,334.078451 328,345.870557 L328,366 C328,366 361.132743,357.292964 364,332.319196 L364,314 Z" id="Shape" stroke="none" fill="#1943F4" fill-rule="nonzero" opacity="0.5"></path>
                            <path d="M322,251 L322,270.924528 C322,270.924528 336.566667,275.90566 341,284 L341,262.830189 C336.592482,256.484295 329.719427,252.204845 322,251 Z" id="Shape" stroke="none" fill="#1943F4" fill-rule="nonzero" opacity="0.5"></path>
                            <path d="M356,277 L356,282.800694 C356,282.800694 372.397284,286.448686 378,303 L378,295.265741 C378,295.265741 373.032258,281.086267 356,277 Z" id="Shape" stroke="none" fill="#19BAF2" fill-rule="nonzero" opacity="0.6"></path>
                            <path d="M94,381 L94,393.736098 C94,393.736098 107.062409,407.130732 121,408 L121,394.473659 C121,394.473659 106.409289,394.355122 94,381 Z" id="Shape" stroke="none" fill="#1943F4" fill-rule="nonzero" opacity="0.5"></path>
                            <path d="M90,374.392405 L90,386 C85.8056782,382.203943 83.01296,377.343199 82,372.075949 L82,363 C82,363 85.3015873,372.037975 90,374.392405 Z" id="Shape" stroke="none" fill="#1943F4" fill-rule="nonzero" opacity="0.5"></path>
                            <path d="M145,240.989691 L145,264 C145,264 159.53125,254.412371 176,254.731959 L176,233 C165.190333,233.317136 154.592923,236.048428 145,240.989691 Z" id="Shape" stroke="none" fill="#19BAF2" fill-rule="nonzero" opacity="0.3"></path>
                            <path d="M124,288.453373 L124,305 C124,305 134.226667,295.327381 142,294.256944 L142,279 C135.140989,280.294516 128.858047,283.594238 124,288.453373 Z" id="Shape" stroke="none" fill="#19BAF2" fill-rule="nonzero" opacity="0.6"></path>
                            <path d="M149,242.989691 L149,266 C149,266 163.53125,256.412371 180,256.731959 L180,235 C169.190333,235.317136 158.592923,238.048428 149,242.989691 Z" id="Shape" stroke="none" fill="#19BAF2" fill-rule="nonzero" opacity="0.6"></path>
                            <path d="M262,293.114768 L262,347.599063 C262.004407,348.830912 262.666345,349.964791 263.732015,350.565955 C264.797685,351.167118 266.101728,351.142283 267.144154,350.500971 L312.985407,322.121071 C314.239313,321.34283 315.002263,319.963037 314.999989,318.477706 L314.999989,266.716348 C315.00319,265.395506 314.309626,264.172706 313.179303,263.506352 C312.04898,262.839998 310.652637,262.830745 309.513736,263.482062 L264.191967,289.381917 C262.842472,290.131016 262.002928,291.560733 262,293.114768 Z" id="Shape" stroke="none" fill="#16B0F4" fill-rule="nonzero" opacity="0.6"></path>
                            <path d="M268.000007,296.106358 L268.000007,350.598568 C268.004414,351.830596 268.666352,352.964641 269.732022,353.565892 C270.797692,354.167143 272.101735,354.142304 273.14416,353.500899 L318.972736,325.116876 C320.231498,324.341639 320.999563,322.961078 320.999989,321.472981 L320.999989,269.716888 C321.00319,268.395855 320.309626,267.172877 319.179303,266.506425 C318.04898,265.839974 316.652637,265.83072 315.513737,266.482132 L270.141292,292.38575 C268.815306,293.146007 267.99726,294.56741 268.000007,296.106358 Z" id="Shape" stroke="none" fill="#16B0F4" fill-rule="nonzero" opacity="0.6"></path>
                            <path d="M277,298.123176 L277,352.599557 C277.004407,353.831227 277.666345,354.964942 278.732015,355.566018 C279.797685,356.167094 281.101728,356.142262 282.144154,355.501044 L327.985407,327.125266 C329.239313,326.347138 330.002263,324.967545 329.999989,323.48243 L329.999989,271.715808 C330.00319,270.395159 329.309626,269.172536 328.179303,268.506278 C327.04898,267.840021 325.652637,267.830769 324.513736,268.481992 L279.191967,294.403648 C277.84643,295.150421 277.007526,296.57395 277,298.123176 Z" id="Shape" stroke="none" fill="#1A4FF2" fill-rule="nonzero" opacity="0.8"></path>
                            <path d="M281.000293,300.01395 L281.000293,348.996425 C280.985118,350.07673 281.560191,351.079593 282.500908,351.613326 C283.441625,352.147059 284.598744,352.126988 285.52033,351.560952 L327.176576,326.043904 C328.306286,325.344998 328.99547,324.113997 329,322.786954 L329,276.266426 C328.99881,275.105434 328.381192,274.032137 327.377298,273.446491 C326.373404,272.860845 325.133799,272.850686 324.120415,273.4198 L282.939286,296.680064 C281.74167,297.3644 281.002053,298.636092 281.000293,300.01395 Z" id="Shape" stroke="none" fill="#FFFFFF" fill-rule="nonzero"></path>
                            <path d="M165.153581,276.451627 L164.00003,329.367154 C163.995892,330.232814 164.42508,331.041979 165.140904,331.518087 L213.197084,362.655411 C213.963643,363.103643 214.906236,363.115311 215.683441,362.686189 C216.460646,362.257067 216.959761,361.449382 217,360.55569 L217,302.941398 C216.985649,302.041265 216.504346,301.214867 215.732361,300.764858 L168.829733,274.275087 C168.060919,273.882816 167.147503,273.911625 166.40442,274.351582 C165.661338,274.791538 165.190249,275.582454 165.153581,276.451627 Z" id="Shape" stroke="none" fill="#16B0F4" fill-rule="nonzero" opacity="0.6"></path>
                            <path d="M172.153581,273.451627 L171.00003,326.367154 C170.995892,327.232814 171.42508,328.041979 172.140904,328.518087 L220.197084,359.655411 C220.963643,360.103643 221.906236,360.115311 222.683441,359.686189 C223.460646,359.257067 223.959761,358.449382 224,357.55569 L224,299.941398 C223.985649,299.041265 223.504346,298.214867 222.732361,297.764858 L175.829733,271.275087 C175.060919,270.882816 174.147503,270.911625 173.40442,271.351582 C172.661338,271.791538 172.190249,272.582454 172.153581,273.451627 Z" id="Shape" stroke="none" fill="#16B0F4" fill-rule="nonzero" opacity="0.6"></path>
                            <path d="M161,289.641467 L161,330.615237 C161.002212,332.262285 161.88546,333.785886 163.323334,334.622984 L198.874243,355.35315 C200.333877,356.202921 202.14309,356.216287 203.615463,355.388179 C205.087835,354.560071 205.997756,353.017379 206,351.345403 L206,309.372898 C205.997612,307.689029 205.074712,306.137363 203.585809,305.313934 L168.0349,285.595307 C166.574918,284.787851 164.79084,284.802705 163.34488,285.634356 C161.89892,286.466007 161.006931,287.990307 161,289.641467 Z" id="Shape" stroke="none" fill="#FFFFFF" fill-rule="nonzero"></path>
                            <path d="M158.153581,279.451627 L157.00003,332.367154 C156.995892,333.232814 157.42508,334.041979 158.140904,334.518087 L206.197084,365.655411 C206.963643,366.103643 207.906236,366.115311 208.683441,365.686189 C209.460646,365.257067 209.959761,364.449382 210,363.55569 L210,305.941398 C209.985649,305.041265 209.504346,304.214867 208.732361,303.764858 L161.829733,277.275087 C161.060919,276.882816 160.147503,276.911625 159.40442,277.351582 C158.661338,277.791538 158.190249,278.582454 158.153581,279.451627 Z" id="Shape" stroke="none" fill="#1A4FF2" fill-rule="nonzero" opacity="0.8"></path>
                            <path d="M160.995533,286.133675 L160.000537,331.865656 C159.983879,332.615083 160.355881,333.319346 160.982777,333.7252 L202.696079,360.65654 C203.356912,361.084657 204.19786,361.11465 204.887209,360.734689 C205.576557,360.354728 206.003634,359.625813 205.999977,358.835469 L205.999977,309.050963 C206.001694,308.268979 205.581817,307.547451 204.90293,307.165769 L164.184623,284.27413 C163.524178,283.902768 162.717879,283.9091 162.063285,284.290791 C161.408691,284.672482 161.00285,285.372943 160.995533,286.133675 Z" id="Shape" stroke="none" fill="#FFFFFF" fill-rule="nonzero"></path>
                            <polygon id="Shape" stroke="none" fill="#6FEDF4" fill-rule="nonzero" points="284 330.414552 288.728372 333 297 327.477157 292.356279 325"></polygon>
                            <polygon id="Shape" stroke="none" fill="#83DAFC" fill-rule="nonzero" points="288 332.403679 288 343 284 340.382381 284 330"></polygon>
                            <polygon id="Shape" stroke="none" fill="#94FAFC" fill-rule="nonzero" points="288 343 288 332.2224 297 327 297 336.7024"></polygon>
                            <polygon id="Shape" stroke="none" fill="#6FEDF4" fill-rule="nonzero" points="311 299.026316 315.534884 301 324 295.407895 319.465116 293"></polygon>
                            <polygon id="Shape" stroke="none" fill="#83DAFC" fill-rule="nonzero" points="311 300 315 301.916058 315 328 311 325.662409"></polygon>
                            <polygon id="Shape" stroke="none" fill="#94FAFC" fill-rule="nonzero" points="315 327 315 301.340495 324 296 324 320.930685"></polygon>
                            <polygon id="Shape" stroke="none" fill="#F3A233" fill-rule="nonzero" points="297 311.821918 301.463415 314 310 308.178082 305.02439 306"></polygon>
                            <polygon id="Shape" stroke="none" fill="#EE7F51" fill-rule="nonzero" points="301 314.049888 297 312 297 332.640695 301 335"></polygon>
                            <polygon id="Shape" stroke="none" fill="#F9D08A" fill-rule="nonzero" points="312 308 303 313.639241 303 335 312 329.111003"></polygon>
                            <ellipse id="Oval" stroke="none" fill="#F9D08A" fill-rule="nonzero" cx="144.5" cy="330" rx="3.5" ry="5"></ellipse>
                            <ellipse id="Oval" stroke="none" fill="#F9D08A" fill-rule="nonzero" cx="160.5" cy="315" rx="3.5" ry="5"></ellipse>
                            <ellipse id="Oval" stroke="none" fill="#F9D08A" fill-rule="nonzero" cx="169.5" cy="359" rx="3.5" ry="5"></ellipse>
                            <ellipse id="Oval" stroke="none" fill="#F9D08A" fill-rule="nonzero" cx="183.5" cy="348" rx="3.5" ry="5"></ellipse>
                            <polyline id="Shape" stroke="#F9D08A" stroke-width="1" fill="none" points="145 330.497178 160.894596 314 169.462975 360 183 348.746614"></polyline>
                            <ellipse id="Oval" stroke="none" fill="#11F4F4" fill-rule="nonzero" cx="170" cy="318" rx="3" ry="4"></ellipse>
                            <ellipse id="Oval" stroke="none" fill="#11F4F4" fill-rule="nonzero" cx="183" cy="306" rx="3" ry="4"></ellipse>
                            <ellipse id="Oval" stroke="none" fill="#11F4F4" fill-rule="nonzero" cx="190" cy="340" rx="3" ry="4"></ellipse>
                            <ellipse id="Oval" stroke="none" fill="#11F4F4" fill-rule="nonzero" cx="201" cy="332" rx="3" ry="4"></ellipse>
                            <polyline id="Shape" stroke="#0FEFEF" stroke-width="1" fill="none" points="169 317.918784 181.550761 305 188.314721 341 199 332.189982"></polyline>
                            <path d="M230.49999,194 C223.040497,194 217,197.459662 217,201.723599 L217,356.731757 L217.247348,356.731757 C218.445033,360.293549 223.925742,363 230.49999,363 C237.074237,363 242.554946,360.306315 243.752631,356.731757 L243.999979,356.731757 L243.999979,201.78743 C244.012997,197.459662 237.959482,194 230.49999,194 Z" id="Shape" stroke="none" fill="url(#linearGradient-10)" fill-rule="nonzero" opacity="0.1"></path>
                            <rect id="Rectangle-path" stroke="none" fill="none" x="6" y="0" width="450" height="576"></rect>
                        </g>
                    </g>
                </g>
            </g>
        </g>
    </g>
</svg>